<svg id="Layer_1" data-name="Layer 1" xmlns="http://www.w3.org/2000/svg" viewBox="0 0 809.41 166.71">
  <g>
    <path d="M0,166.71V68H32a43.8,43.8,0,0,1,15.86,2.87,40.26,40.26,0,0,1,12.94,8,38.76,38.76,0,0,1,8.74,11.87,33.52,33.52,0,0,1,3.23,14.59,32.73,32.73,0,0,1-3.23,14.37,38,38,0,0,1-8.74,11.72,40.69,40.69,0,0,1-12.94,7.89A43.71,43.71,0,0,1,32,142.09H7.46v24.62Zm7.46-31.4H32.11A35.4,35.4,0,0,0,45,133a32.77,32.77,0,0,0,10.53-6.5,32.26,32.26,0,0,0,7.14-9.61,26.21,26.21,0,0,0,2.67-11.67,27.07,27.07,0,0,0-2.67-11.9,32,32,0,0,0-7.14-9.67A32.59,32.59,0,0,0,45,77.1a35.2,35.2,0,0,0-12.89-2.37H7.46Z" style="fill: #fff"/>
    <path d="M91.93,166.71,130.2,68h7.62l39.56,98.76h-7.94l-9.73-24.32H109.12l-9.24,24.32Zm19.3-30.07H157.6L134.09,77.09Z" style="fill: #fff"/>
    <path d="M202.68,166.71V68h7.46v98.76Z" style="fill: #fff"/>
    <path d="M242.4,68h70.86l-59.67,92h59.35v6.78H242.08l59-92H242.4Z" style="fill: #fff"/>
    <path d="M393.19,166.71V68H425.3a43.93,43.93,0,0,1,15.89,2.87,40.4,40.4,0,0,1,13,8,37.63,37.63,0,0,1,8.68,11.87A34.2,34.2,0,0,1,466,105.24a33.75,33.75,0,0,1-1.79,11,35.81,35.81,0,0,1-5,9.66,39.27,39.27,0,0,1-17.84,13.41l23.19,27.42h-8.6l-21.72-25.5a45,45,0,0,1-8.92.88H400.65v24.62Zm7.46-31.4H425.3A35.36,35.36,0,0,0,438.19,133a33.86,33.86,0,0,0,10.62-6.5,30.61,30.61,0,0,0,7.13-9.61,26.85,26.85,0,0,0,2.6-11.67,27.73,27.73,0,0,0-2.6-11.9,30.4,30.4,0,0,0-7.13-9.67,33.68,33.68,0,0,0-10.62-6.5,35.16,35.16,0,0,0-12.89-2.37H400.65Z" style="fill: #fff"/>
    <path d="M497.13,166.71V68h7.46v98.76Z" style="fill: #fff"/>
    <path d="M601.87,166.71H535.39V68h66.48v6.78h-59v50h50.91v6.78H542.85v28.45h59Z" style="fill: #fff"/>
    <path d="M630.41,166.71V68h32.1a43.93,43.93,0,0,1,15.89,2.87,40.29,40.29,0,0,1,13,8,37.63,37.63,0,0,1,8.68,11.87,35,35,0,0,1,1.38,25.57,35.84,35.84,0,0,1-5,9.66,39.13,39.13,0,0,1-17.84,13.41l23.19,27.42h-8.59l-21.73-25.5a44.9,44.9,0,0,1-8.92.88H637.87v24.62Zm7.46-31.4h24.64A35.36,35.36,0,0,0,675.4,133a33.75,33.75,0,0,0,10.62-6.5,30.64,30.64,0,0,0,7.14-9.61,26.84,26.84,0,0,0,2.59-11.67,27.72,27.72,0,0,0-2.59-11.9A30.43,30.43,0,0,0,686,83.6a33.57,33.57,0,0,0-10.62-6.5,35.16,35.16,0,0,0-12.89-2.37H637.87Z" style="fill: #fff"/>
    <path d="M724,166.71,762.23,68h7.62l39.56,98.76h-7.94l-9.73-24.32H741.15l-9.24,24.32Zm19.3-30.07h46.37L766.12,77.09Z" style="fill: #fff"/>
  </g>
  <text transform="translate(39.2 43.81)" style="font-size: 48.62273025512695px;fill: #fff;font-family: Montserrat-Bold, Montserrat;font-weight: 700;letter-spacing: 1.0200006166564557em">FUN<tspan x="257.46" y="0" style="letter-spacing: 1.0100085853328185em">DA</tspan><tspan x="433.08" y="0" style="letter-spacing: 1.0200106588989921em">CIÓN</tspan></text>
</svg>
