<svg id="Layer_1" data-name="Layer 1" xmlns="http://www.w3.org/2000/svg" xmlns:xlink="http://www.w3.org/1999/xlink" viewBox="0 0 338.74 292.49"><defs><style>.cls-1{fill:url(#linear-gradient);}.cls-2{fill:url(#linear-gradient-2);}.cls-3{fill:url(#linear-gradient-3);}.cls-4{fill:url(#linear-gradient-4);}.cls-5{fill:url(#linear-gradient-5);}.cls-6{fill:url(#linear-gradient-6);}.cls-7{fill:url(#linear-gradient-7);}.cls-8{fill:url(#linear-gradient-8);}.cls-9{fill:url(#linear-gradient-9);}</style><linearGradient id="linear-gradient" x1="-12.63" y1="268.68" x2="206.33" y2="49.71" gradientUnits="userSpaceOnUse"><stop offset="0" stop-color="#fff"/><stop offset="0.9" stop-color="#f7f8f8" stop-opacity="0"/><stop offset="1" stop-color="#010101" stop-opacity="0"/></linearGradient><linearGradient id="linear-gradient-2" x1="1020.14" y1="-1110.85" x2="1183.69" y2="-1274.4" gradientTransform="translate(-938.48 1481.45) rotate(0.09)" gradientUnits="userSpaceOnUse"><stop offset="0" stop-color="#010101" stop-opacity="0"/><stop offset="0.1" stop-color="#f7f8f8" stop-opacity="0"/><stop offset="1" stop-color="#fff"/></linearGradient><linearGradient id="linear-gradient-3" x1="414.22" y1="-1693.35" x2="583.53" y2="-1862.66" gradientTransform="translate(2015.73 -359.85) rotate(-122.17)" gradientUnits="userSpaceOnUse"><stop offset="0" stop-color="#071e37" stop-opacity="0"/><stop offset="0.01" stop-color="#071f38" stop-opacity="0.35"/><stop offset="0.03" stop-color="#081f38" stop-opacity="0.64"/><stop offset="0.05" stop-color="#082039" stop-opacity="0.85"/><stop offset="0.07" stop-color="#082039" stop-opacity="0.97"/><stop offset="0.15" stop-color="#082039"/><stop offset="0.19" stop-color="#1a3047"/><stop offset="0.36" stop-color="#5f6e7e"/><stop offset="0.53" stop-color="#98a2ac"/><stop offset="0.68" stop-color="#c4cad0"/><stop offset="0.81" stop-color="#e4e7ea"/><stop offset="0.92" stop-color="#f8f9f9"/><stop offset="1" stop-color="#fff"/></linearGradient><linearGradient id="linear-gradient-4" x1="404.49" y1="-1703.08" x2="573.8" y2="-1872.39" xlink:href="#linear-gradient-3"/><linearGradient id="linear-gradient-5" x1="373.34" y1="-1734.24" x2="542.65" y2="-1903.55" xlink:href="#linear-gradient-3"/><linearGradient id="linear-gradient-6" x1="424.76" y1="-1682.82" x2="594.07" y2="-1852.13" xlink:href="#linear-gradient-3"/><linearGradient id="linear-gradient-7" x1="380.38" y1="-1727.19" x2="549.69" y2="-1896.5" xlink:href="#linear-gradient-3"/><linearGradient id="linear-gradient-8" x1="387.65" y1="-1719.92" x2="556.96" y2="-1889.23" xlink:href="#linear-gradient-3"/><linearGradient id="linear-gradient-9" x1="396.19" y1="-1711.39" x2="565.5" y2="-1880.7" xlink:href="#linear-gradient-3"/></defs><path class="cls-1" d="M70.05,248.86,156.62,0,84.72,242Zm50.19-23.34L156.62,0,108.48,231Zm-17.43,8.11L156.62,0,90.82,239.2ZM63.38,252,156.62,0,49.77,258.28Zm75-34.86L156.62,0,125.55,223.06ZM156.62,0,.07,281.38,18,273ZM42.51,261.66,156.62,0,26,269.35Z"/><path class="cls-2" d="M254.2,246.18,0,288.53l238.57-51.84Zm-52.91-32.11L0,288.53l213.55-67Zm18.2,11.05L0,288.53l232.12-55.75Zm41.85,25.39L0,288.53l276-29.12Zm-78.81-47.82L0,288.53l195.78-77.8ZM0,288.53l330.54,4-19.89-12.07Zm283.88-24.35L0,288.53l302-13.38Z"/><polygon class="cls-3" points="155.74 57.2 338.74 292.49 156.64 37.8 155.74 57.2"/><polygon class="cls-4" points="154.59 81.72 338.74 292.49 155.34 65.72 154.59 81.72"/><polygon class="cls-5" points="151.16 155.15 150.45 170.4 338.74 292.49 151.16 155.15"/><polygon class="cls-6" points="157.07 28.54 338.74 292.49 158.05 7.56 157.07 28.54"/><polygon class="cls-7" points="151.45 148.87 338.74 292.49 152.1 134.94 151.45 148.87"/><polygon class="cls-8" points="152.42 128.23 338.74 292.49 153.08 114.06 152.42 128.23"/><polygon class="cls-9" points="153.41 106.86 338.74 292.49 154.22 89.56 153.41 106.86"/></svg>