<svg id="Layer_1" data-name="Layer 1" xmlns="http://www.w3.org/2000/svg" viewBox="0 0 206.66 176.18">
  <g>
    <path d="M97.76,87.85c-.63.25-1.18.42-2.21.9-2.12,3.44-4,6.68-5.72,9.67C87.25,103,86,106,86,107.33v.15a1.08,1.08,0,0,1-.46.76,1.31,1.31,0,0,1-.56.15.85.85,0,0,1-.35,0,.75.75,0,0,1-.46-.61v-.25c0-1.57,1.12-4.76,3.4-9.46,1.26-2.64,2.68-5.42,4.2-8.31a34.13,34.13,0,0,1-6.89.91c-.3,0-.6-.05-.91-.05-2.53-.15-3.84-.71-3.84-1.67,0-.1,0-.2,0-.3.25-1.11,1.87-2.23,4.86-3.39,2.48-1,5.48-.83,9.68-1,.31-.61.61-1.22,1-1.82,3.29-5.93,6.56-11.78,9.09-16.19s3.9-6.63,4-6.88A4.75,4.75,0,0,1,111.4,57a9.26,9.26,0,0,1,1.87-.3,3.14,3.14,0,0,1,1.57.35,1.09,1.09,0,0,1,.61,1,1.72,1.72,0,0,1-.35,1l-.11.16c-.65.91-2.48,3.59-5.46,8.1S102.64,77.7,98.94,83.48c0,0,0,0,0,.1a99.85,99.85,0,0,0,26.63-12.85c6.94-4.86,11.19-9,12.66-12.45s2.18-6.08,2.18-7.9a10.79,10.79,0,0,0-2.48-6.89,17.43,17.43,0,0,0-11.75-6.27,91,91,0,0,0-11-1,116.15,116.15,0,0,0-24.51,3.19A150.28,150.28,0,0,0,66.4,47.19,79.42,79.42,0,0,0,46.45,59a44.57,44.57,0,0,0-8,8.51,18,18,0,0,0-2.93,6,18.23,18.23,0,0,0-.36,3.14,8.28,8.28,0,0,0,.51,3.09,10.59,10.59,0,0,0,2.12,3.8,11.41,11.41,0,0,0,2.38,2.22,7.64,7.64,0,0,0,1.17.76.47.47,0,0,1,.15.26.26.26,0,0,1-.1.2h0a.34.34,0,0,1-.21,0,8.3,8.3,0,0,1-1.26-.76,13.1,13.1,0,0,1-2.63-2.33,10.85,10.85,0,0,1-3-7.39,14.39,14.39,0,0,1,.15-2,18.57,18.57,0,0,1,3.14-7.23,45.86,45.86,0,0,1,8.3-8.91A82.61,82.61,0,0,1,66,46.18a143.55,143.55,0,0,1,24.35-8A121.6,121.6,0,0,1,116,34.84a57.76,57.76,0,0,1,7.44.45c8.45,1.17,14.12,3.34,17,6.58s4.3,6.43,4.3,9.62a16,16,0,0,1-.81,5c-1.67,5.27-6,10.53-12.81,15.75s-16.4,9.77-28.5,13.67m-20.1,3.34c0,.2.46.3,1.32.3a36.66,36.66,0,0,0,9.06-1.67l.15-.41C85.94,87.64,82.49,88.65,82.49,89.21Z" style="fill: #3a3a3a"/>
    <g>
      <path d="M137.48,41.09a14.17,14.17,0,0,1,1.4,2V0H67.27V108.38h1.4V1.4h68.81Z" style="fill: #3a3a3a"/>
      <path d="M137.48,64v43H84.92v1.4h54V61.94A14.76,14.76,0,0,1,137.48,64Z" style="fill: #3a3a3a"/>
    </g>
  </g>
  <g>
    <g>
      <path d="M0,155.15V129.93H8.18a11.15,11.15,0,0,1,4.05.73,10.3,10.3,0,0,1,3.3,2,9.68,9.68,0,0,1,2.23,3,8.51,8.51,0,0,1,.83,3.72,8.33,8.33,0,0,1-.83,3.67,9.63,9.63,0,0,1-2.23,3,10.32,10.32,0,0,1-3.3,2,11.15,11.15,0,0,1-4.05.73H1.9v6.29Zm1.9-8H8.2a9.06,9.06,0,0,0,3.29-.6,8.64,8.64,0,0,0,2.69-1.66A8.28,8.28,0,0,0,16,142.41a6.61,6.61,0,0,0,.68-3,6.79,6.79,0,0,0-.68-3,8,8,0,0,0-1.82-2.47,8.29,8.29,0,0,0-2.69-1.66,8.86,8.86,0,0,0-3.29-.61H1.9Z" style="fill: #3a3a3a"/>
      <path d="M23.47,155.15l9.77-25.22h1.95l10.1,25.22h-2l-2.48-6.21H27.86l-2.36,6.21Zm4.93-7.68H40.24l-6-15.21Z" style="fill: #3a3a3a"/>
      <path d="M51.75,155.15V129.93h1.9v25.22Z" style="fill: #3a3a3a"/>
      <path d="M61.89,129.93H80L64.75,153.41H79.9v1.74H61.81l15.07-23.49h-15Z" style="fill: #3a3a3a"/>
      <path d="M100.39,155.15V129.93h8.2a11.15,11.15,0,0,1,4,.73,10.28,10.28,0,0,1,3.32,2,9.62,9.62,0,0,1,2.21,3,8.64,8.64,0,0,1,.81,3.72,8.49,8.49,0,0,1-.46,2.81,9,9,0,0,1-1.28,2.46,10,10,0,0,1-2,2,10.3,10.3,0,0,1-2.56,1.42l5.92,7h-2.2l-5.55-6.52a10.73,10.73,0,0,1-2.27.23h-6.3v6.29Zm1.9-8h6.3a9.06,9.06,0,0,0,3.29-.6,8.86,8.86,0,0,0,2.71-1.66,8,8,0,0,0,1.82-2.46,6.87,6.87,0,0,0,.66-3,7.06,7.06,0,0,0-.66-3,7.66,7.66,0,0,0-1.82-2.47,8.49,8.49,0,0,0-2.71-1.66,8.86,8.86,0,0,0-3.29-.61h-6.3Z" style="fill: #3a3a3a"/>
      <path d="M126.93,155.15V129.93h1.9v25.22Z" style="fill: #3a3a3a"/>
      <path d="M153.67,155.15h-17V129.93h17v1.73H138.6v12.76h13v1.73h-13v7.26h15.07Z" style="fill: #3a3a3a"/>
      <path d="M161,155.15V129.93h8.19a11.16,11.16,0,0,1,4.06.73,10.24,10.24,0,0,1,3.31,2,9.5,9.5,0,0,1,2.22,3,9,9,0,0,1,.35,6.53,9,9,0,0,1-1.29,2.46,9.91,9.91,0,0,1-2,2,10.36,10.36,0,0,1-2.57,1.42l5.92,7H177l-5.55-6.52a10.82,10.82,0,0,1-2.28.23h-6.29v6.29Zm1.9-8h6.29a9,9,0,0,0,3.29-.6,8.91,8.91,0,0,0,2.72-1.66,8,8,0,0,0,1.82-2.46,6.87,6.87,0,0,0,.66-3,7.06,7.06,0,0,0-.66-3,7.66,7.66,0,0,0-1.82-2.47,8.53,8.53,0,0,0-2.72-1.66,8.82,8.82,0,0,0-3.29-.61h-6.29Z" style="fill: #3a3a3a"/>
      <path d="M184.84,155.15l9.77-25.22h1.95l10.1,25.22h-2l-2.48-6.21H189.23l-2.36,6.21Zm4.93-7.68h11.84l-6-15.21Z" style="fill: #3a3a3a"/>
    </g>
    <g>
      <path d="M48,167.92a5.65,5.65,0,0,0-1.76-1.58,4.63,4.63,0,0,0-2.32-.59,4.7,4.7,0,0,0-1.87.38,5,5,0,0,0-1.53,1,4.81,4.81,0,0,0-1,1.54,4.84,4.84,0,0,0,0,3.76,4.73,4.73,0,0,0,1,1.52A4.85,4.85,0,0,0,42,175a4.7,4.7,0,0,0,1.87.38,5.34,5.34,0,0,0,1.28-.16,5.23,5.23,0,0,0,1.11-.43,4.33,4.33,0,0,0,1.59-1.36v-1.67H43.07v-.68h5.49v2.61a6.09,6.09,0,0,1-2,1.79,5.71,5.71,0,0,1-4.84.23,5.54,5.54,0,0,1-1.77-1.18,5.54,5.54,0,0,1-1.64-3.95,5.58,5.58,0,0,1,1.64-4,5.58,5.58,0,0,1,4-1.63,5.62,5.62,0,0,1,4.63,2.4Z" style="fill: #3a3a3a"/>
      <path d="M51.43,176.14V165h3.3a4.09,4.09,0,0,1,1.63.33,4.15,4.15,0,0,1,2.22,2.24,4.12,4.12,0,0,1,.33,1.65,4.28,4.28,0,0,1-.19,1.24,4.18,4.18,0,0,1-.51,1.09,4.51,4.51,0,0,1-.8.89,3.77,3.77,0,0,1-1,.62l2.39,3.1h-.89l-2.23-2.88a4,4,0,0,1-.91.1H52.19v2.78Zm.76-3.54h2.54a3.44,3.44,0,0,0,3.14-2.09,3.25,3.25,0,0,0,.27-1.32,3.49,3.49,0,0,0-1-2.44,3.42,3.42,0,0,0-1.09-.73,3.32,3.32,0,0,0-1.32-.27H52.19Z" style="fill: #3a3a3a"/>
      <path d="M62.34,165v7a3.24,3.24,0,0,0,.26,1.32,3.42,3.42,0,0,0,.73,1.09,3.61,3.61,0,0,0,1.1.74,3.1,3.1,0,0,0,1.32.28,3.25,3.25,0,0,0,1.36-.29,3.51,3.51,0,0,0,1.1-.79,3.81,3.81,0,0,0,.71-1.16,3.88,3.88,0,0,0,.26-1.41V165H70v7a4.07,4.07,0,0,1-.33,1.64,4.34,4.34,0,0,1-.9,1.33,4.27,4.27,0,0,1-1.34.9,4.06,4.06,0,0,1-1.63.33,4.12,4.12,0,0,1-1.65-.33,4.07,4.07,0,0,1-1.32-.9,4.31,4.31,0,0,1-.89-1.33,4.24,4.24,0,0,1-.32-1.64v-7Z" style="fill: #3a3a3a"/>
      <path d="M72.68,176.14V165H76a4,4,0,0,1,1.62.33,4.11,4.11,0,0,1,1.33.9,4.27,4.27,0,0,1,.9,1.34,4.12,4.12,0,0,1,.33,1.65,4,4,0,0,1-.33,1.62,4.22,4.22,0,0,1-.9,1.33,4.32,4.32,0,0,1-1.32.89,4.27,4.27,0,0,1-1.63.32H73.44v2.78Zm.76-3.54H76a3.35,3.35,0,0,0,2.41-1,3.67,3.67,0,0,0,.73-1.08,3.1,3.1,0,0,0,.28-1.32,3.16,3.16,0,0,0-.28-1.34,3.64,3.64,0,0,0-.73-1.1A3.49,3.49,0,0,0,77.3,166a3.33,3.33,0,0,0-1.33-.27H73.44Z" style="fill: #3a3a3a"/>
      <path d="M93.77,170.58a5.47,5.47,0,0,1-1.63,3.95,5.63,5.63,0,0,1-1.79,1.18,5.52,5.52,0,0,1-2.19.43,5.59,5.59,0,0,1-2.19-.43,5.7,5.7,0,0,1-1.78-1.18A5.57,5.57,0,0,1,83,172.76a5.77,5.77,0,0,1,0-4.37A5.58,5.58,0,0,1,88.16,165a5.55,5.55,0,0,1,5.61,5.6Zm-.76,0a4.75,4.75,0,0,0-.38-1.88,5,5,0,0,0-1-1.54,4.81,4.81,0,0,0-1.54-1,4.82,4.82,0,0,0-3.75,0,5,5,0,0,0-1.53,1,4.81,4.81,0,0,0-1,1.54,4.73,4.73,0,0,0,0,3.76,4.73,4.73,0,0,0,1,1.52,4.85,4.85,0,0,0,1.53,1,4.85,4.85,0,0,0,5.29-1,4.92,4.92,0,0,0,1-1.52A4.75,4.75,0,0,0,93,170.57Z" style="fill: #3a3a3a"/>
      <path d="M101.4,176.14V165h7.1v.77h-6.33v5.85h4v.76h-4v3.78Z" style="fill: #3a3a3a"/>
      <path d="M108.48,176.14,112.41,165h.78l4.06,11.16h-.81l-1-2.75h-5.2l-.95,2.75Zm2-3.4h4.76L112.81,166Z" style="fill: #3a3a3a"/>
      <path d="M124,176.14l-4.08-9.66v9.66h-.7V165h.83l4.31,10.16L128.73,165h.81v11.16h-.7v-9.67l-4,9.67Z" style="fill: #3a3a3a"/>
      <path d="M132.61,176.14V165h.76v11.16Z" style="fill: #3a3a3a"/>
      <path d="M142.13,176.14h-5.66V165h.77v10.4h4.89Z" style="fill: #3a3a3a"/>
      <path d="M144.76,176.14V165h.77v11.16Z" style="fill: #3a3a3a"/>
      <path d="M148.11,176.14,152,165h.78l4.07,11.16h-.82l-1-2.75h-5.2l-.94,2.75Zm2-3.4h4.76L152.44,166Z" style="fill: #3a3a3a"/>
      <path d="M159.23,176.14V165h3.3a4.06,4.06,0,0,1,1.63.33,4.11,4.11,0,0,1,1.33.9,4.3,4.3,0,0,1,1,4.23,4.56,4.56,0,0,1-.52,1.09,4.22,4.22,0,0,1-.8.89,3.72,3.72,0,0,1-1,.62l2.38,3.1h-.88l-2.23-2.88a4.05,4.05,0,0,1-.92.1H160v2.78Zm.77-3.54h2.53a3.25,3.25,0,0,0,1.32-.27,3.44,3.44,0,0,0,1.1-.74,3.49,3.49,0,0,0,.73-1.08,3.24,3.24,0,0,0,.26-1.32,3.3,3.3,0,0,0-.26-1.34,3.47,3.47,0,0,0-.73-1.1,3.58,3.58,0,0,0-1.1-.73,3.25,3.25,0,0,0-1.32-.27H160Z" style="fill: #3a3a3a"/>
    </g>
  </g>
</svg>
