<svg id="Layer_1" data-name="Layer 1" xmlns="http://www.w3.org/2000/svg" viewBox="0 0 589.72 578.68"><defs><style>.cls-1{fill:#fff;}</style></defs><path class="cls-1" d="M344.17,479.6c-3.34,1.35-6.27,2.25-11.75,4.83-11.35,18.38-21.62,35.68-30.53,51.63-13.79,24.32-20.55,40.27-20.55,47.56v.81c-.54,2.16-1.35,3.52-2.43,4.06a7,7,0,0,1-3,.81,4.59,4.59,0,0,1-1.89-.27,3.88,3.88,0,0,1-2.43-3.25v-1.35c0-8.38,5.94-25.4,18.1-50.54,6.76-14,14.33-28.91,22.44-44.32-15.14,3.24-27.3,4.86-36.76,4.86-1.62,0-3.24-.27-4.87-.27C257,493.35,250,490.38,250,485.24c0-.54.27-1.07.27-1.62,1.36-5.94,10-11.89,25.95-18.11,13.24-5.13,29.29-4.41,51.72-5.49,1.62-3.24,3.24-6.49,5.14-9.73,17.56-31.62,35-62.88,48.54-86.39,13.51-23.25,20.81-35.41,21.62-36.76Q410.13,316.6,417,315a48.7,48.7,0,0,1,10-1.62,16.66,16.66,0,0,1,8.37,1.89c2.17,1.35,3.25,3,3.25,5.13a9.32,9.32,0,0,1-1.89,5.14l-.55.81c-3.51,4.86-13.24,19.19-29.18,43.24-16.22,24.05-36.79,55.89-56.52,86.7-.27.27-.27.27-.27.54,58.11-18.38,107.06-44,142.19-68.59,37-25.94,59.73-48.11,67.57-66.49s11.62-32.43,11.62-42.16a57.44,57.44,0,0,0-13.24-36.75c-15.41-18.92-36.22-30-62.71-33.52s-45.94-5.13-58.91-5.13c-36.22,0-79.73,5.67-130.81,17a798.4,798.4,0,0,0-129.19,41.35c-41.35,17.56-77,38.37-106.48,63C51.08,342,36.76,357.14,27.56,370.92s-14.32,24.6-15.67,32.16A100.47,100.47,0,0,0,10,419.84a45,45,0,0,0,2.7,16.49A56.66,56.66,0,0,0,24.05,456.6c4.6,5.4,8.92,9.46,12.71,11.89,3.78,2.7,5.94,4.05,6.21,4.05a2.47,2.47,0,0,1,.81,1.35,1.39,1.39,0,0,1-.54,1.08H43a1.67,1.67,0,0,1-1.08-.26c-.27,0-2.7-1.36-6.76-4.06-4.32-2.7-8.92-6.76-14.05-12.43A56.23,56.23,0,0,1,9.19,439.57a57,57,0,0,1-4-20.81A75.58,75.58,0,0,1,5.94,408c1.62-11.35,7.3-24.33,16.76-38.65s24.05-30,44.33-47.57c30-24.86,65.67-46.48,107.56-64.59a770.81,770.81,0,0,1,130-43c52.7-11.62,98.38-17.57,136.75-17.57A304.73,304.73,0,0,1,481.07,199c45.13,6.22,75.4,17.84,90.81,35.14,15.41,17,23,34.32,23,51.35A86.2,86.2,0,0,1,590.53,312c-8.92,28.1-31.89,56.21-68.38,84.05Q467,437.8,370,469M262.7,486.87c0,1.08,2.43,1.62,7,1.62,8.38,0,24.6-2.16,48.38-8.92l.81-2.16C281.08,478.49,262.7,483.89,262.7,486.87Z" transform="translate(-5.14 -10.62)"/><path class="cls-1" d="M556.25,230a76.39,76.39,0,0,1,7.48,10.79V10.62H181.42V589.25h7.48V18.1H556.25Z" transform="translate(-5.14 -10.62)"/><path class="cls-1" d="M556.25,352.06V581.77H275.64v7.48H563.73v-248A76.39,76.39,0,0,1,556.25,352.06Z" transform="translate(-5.14 -10.62)"/></svg>