<svg id="Layer_1" data-name="Layer 1" xmlns="http://www.w3.org/2000/svg" viewBox="0 0 500 111.89"><defs><style>.cls-1{fill:#fff;}</style></defs><path class="cls-1" d="M0,61V0H19.79a26.79,26.79,0,0,1,9.79,1.78,24.92,24.92,0,0,1,8,4.91A24,24,0,0,1,43,14a20.6,20.6,0,0,1,2,9,20.12,20.12,0,0,1-2,8.88,23.51,23.51,0,0,1-5.39,7.23,25.34,25.34,0,0,1-8,4.88,27.05,27.05,0,0,1-9.8,1.77H4.61V61Zm4.61-19.4H19.83a21.59,21.59,0,0,0,8-1.46A19.82,19.82,0,0,0,38.71,30.2,16.2,16.2,0,0,0,40.37,23a16.77,16.77,0,0,0-1.66-7.35,19.85,19.85,0,0,0-4.4-6,20.1,20.1,0,0,0-6.52-4,21.8,21.8,0,0,0-8-1.46H4.61Z"/><path class="cls-1" d="M56.79,61,80.43,0h4.71l24.44,61h-4.91l-6-15H67.41L61.7,61ZM68.71,42.43H97.36L82.83,5.65Z"/><path class="cls-1" d="M125.2,61V0h4.61V61Z"/><path class="cls-1" d="M149.74,0h43.77L156.65,56.82h36.66V61H149.54L186,4.19H149.74Z"/><path class="cls-1" d="M242.89,61V0h19.83a27,27,0,0,1,9.82,1.78,24.86,24.86,0,0,1,8,4.91A23.32,23.32,0,0,1,285.91,14a21.67,21.67,0,0,1,.85,15.8,22.19,22.19,0,0,1-3.11,6,23.79,23.79,0,0,1-4.8,4.87,24.3,24.3,0,0,1-6.21,3.41L287,61h-5.31L268.23,45.25a27.32,27.32,0,0,1-5.51.55H247.5V61Zm4.61-19.4h15.22a21.59,21.59,0,0,0,8-1.46,20.77,20.77,0,0,0,6.56-4,19.1,19.1,0,0,0,4.41-5.94,16.56,16.56,0,0,0,1.6-7.21,17.14,17.14,0,0,0-1.6-7.35,18.77,18.77,0,0,0-4.41-6,20.62,20.62,0,0,0-6.56-4,21.8,21.8,0,0,0-8-1.46H247.5Z"/><path class="cls-1" d="M307.09,61V0h4.61V61Z"/><path class="cls-1" d="M371.8,61H330.73V0H371.8V4.19H335.34V35.06h31.45v4.18H335.34V56.82H371.8Z"/><path class="cls-1" d="M389.42,61V0h19.84a26.9,26.9,0,0,1,9.81,1.78,24.86,24.86,0,0,1,8,4.91A23.32,23.32,0,0,1,432.44,14a21.14,21.14,0,0,1,2,9,20.73,20.73,0,0,1-1.11,6.78,22.16,22.16,0,0,1-3.1,6,24.15,24.15,0,0,1-11,8.28L433.49,61h-5.31L414.76,45.25a27.29,27.29,0,0,1-5.5.55H394V61ZM394,41.61h15.23a21.67,21.67,0,0,0,8-1.46,20.88,20.88,0,0,0,6.56-4,18.92,18.92,0,0,0,4.4-5.94A16.57,16.57,0,0,0,429.79,23a17.15,17.15,0,0,0-1.61-7.35,18.59,18.59,0,0,0-4.4-6,20.73,20.73,0,0,0-6.56-4,21.88,21.88,0,0,0-8-1.46H394Z"/><path class="cls-1" d="M447.21,61,470.85,0h4.71L500,61h-4.91l-6-15H457.83l-5.71,15Zm11.92-18.58h28.65L473.26,5.65Z"/><path class="cls-1" d="M116.05,91.9a13.94,13.94,0,0,0-4.27-3.8,11,11,0,0,0-5.6-1.43,11.45,11.45,0,0,0-4.53.9,12,12,0,0,0-3.71,2.49,11.72,11.72,0,0,0-2.52,3.71,11.34,11.34,0,0,0-.93,4.56,11.18,11.18,0,0,0,.93,4.54,11.75,11.75,0,0,0,6.23,6.17,11.28,11.28,0,0,0,4.53.91,12,12,0,0,0,3.08-.38,12.4,12.4,0,0,0,2.7-1,11.18,11.18,0,0,0,2.2-1.49,10.73,10.73,0,0,0,1.65-1.81v-4H104.2V99.56h13.3v6.32a15,15,0,0,1-4.89,4.32,13.74,13.74,0,0,1-11.72.56,13.38,13.38,0,0,1-7.18-7.13,13.61,13.61,0,0,1,0-10.58,13.66,13.66,0,0,1,2.89-4.31,13.49,13.49,0,0,1,4.29-2.88,13.22,13.22,0,0,1,5.27-1,13.59,13.59,0,0,1,11.22,5.8Z"/><path class="cls-1" d="M124.43,111.81v-27h8a9.87,9.87,0,0,1,3.94.79,10,10,0,0,1,3.23,2.17A10.29,10.29,0,0,1,141.73,91a10.36,10.36,0,0,1,.34,7,10.3,10.3,0,0,1-1.24,2.64,10.41,10.41,0,0,1-1.94,2.15,9.22,9.22,0,0,1-2.5,1.51l5.77,7.5H140l-5.4-7a10.18,10.18,0,0,1-2.21.24h-6.13v6.73Zm1.85-8.58h6.13a8.1,8.1,0,0,0,3.2-.65,8.25,8.25,0,0,0,2.64-1.78A8.42,8.42,0,0,0,140,98.18a8,8,0,0,0,.64-3.19,8.29,8.29,0,0,0-2.41-5.9,8.42,8.42,0,0,0-2.64-1.78,8.09,8.09,0,0,0-3.2-.64h-6.13Z"/><path class="cls-1" d="M150.82,84.81v16.92a8.11,8.11,0,0,0,.64,3.21,8.51,8.51,0,0,0,1.77,2.64,8.74,8.74,0,0,0,2.64,1.79,8,8,0,0,0,3.21.66,7.79,7.79,0,0,0,3.3-.7,8.28,8.28,0,0,0,2.64-1.91,9,9,0,0,0,1.73-2.8,9.22,9.22,0,0,0,.63-3.41V84.81h1.85v16.92a9.84,9.84,0,0,1-.79,4,10.07,10.07,0,0,1-5.41,5.4,10.37,10.37,0,0,1-7.94,0,9.69,9.69,0,0,1-3.21-2.17,10.43,10.43,0,0,1-2.13-3.23,10,10,0,0,1-.79-4V84.81Z"/><path class="cls-1" d="M175.84,111.81v-27h8a10.06,10.06,0,0,1,7.15,3A10.52,10.52,0,0,1,193.12,91a9.81,9.81,0,0,1,.81,4,9.59,9.59,0,0,1-.81,3.92,10.34,10.34,0,0,1-2.17,3.21,10.11,10.11,0,0,1-7.15,2.94h-6.11v6.73Zm1.85-8.58h6.12a8.17,8.17,0,0,0,5.83-2.43,9.16,9.16,0,0,0,1.77-2.62,7.82,7.82,0,0,0,.66-3.19,8,8,0,0,0-.66-3.25,8.91,8.91,0,0,0-1.77-2.65A8.22,8.22,0,0,0,187,87.31a8.11,8.11,0,0,0-3.21-.64h-6.12Z"/><path class="cls-1" d="M226.88,98.35a13.31,13.31,0,0,1-1,5.28,12.88,12.88,0,0,1-2.9,4.27,13.78,13.78,0,0,1-4.33,2.86,13.72,13.72,0,0,1-14.9-2.86,13.16,13.16,0,0,1-2.89-4.27,14,14,0,0,1,0-10.58,13.66,13.66,0,0,1,17.79-7.19,13.67,13.67,0,0,1,4.33,2.88,13,13,0,0,1,2.9,4.31A13.44,13.44,0,0,1,226.88,98.35Zm-1.85,0a11.34,11.34,0,0,0-.93-4.56,11.55,11.55,0,0,0-2.52-3.71,11.91,11.91,0,0,0-3.72-2.49,11.63,11.63,0,0,0-4.56-.9,11.45,11.45,0,0,0-4.53.9,11.93,11.93,0,0,0-3.7,2.49,11.63,11.63,0,0,0-3.45,8.27,11.18,11.18,0,0,0,.93,4.54,11.53,11.53,0,0,0,2.52,3.69,11.74,11.74,0,0,0,3.7,2.48,11.28,11.28,0,0,0,4.53.91,11.46,11.46,0,0,0,4.56-.91,11.72,11.72,0,0,0,6.24-6.17A11.18,11.18,0,0,0,225,98.33Z"/><path class="cls-1" d="M245.33,111.81v-27H262.5v1.86H247.19v14.14h9.75v1.85h-9.75v9.15Z"/><path class="cls-1" d="M262.46,111.81l9.5-27h1.9l9.83,27h-2l-2.41-6.65H266.73l-2.3,6.65Zm4.79-8.22h11.52l-5.84-16.28Z"/><path class="cls-1" d="M300.07,111.81l-9.89-23.37v23.37h-1.7v-27h2l10.43,24.58,10.52-24.58h2v27h-1.69V88.4l-9.81,23.41Z"/><path class="cls-1" d="M320.84,111.81v-27h1.85v27Z"/><path class="cls-1" d="M343.88,111.81h-13.7v-27H332V110h11.84Z"/><path class="cls-1" d="M350.25,111.81v-27h1.85v27Z"/><path class="cls-1" d="M358.34,111.81l9.51-27h1.89l9.84,27h-2l-2.42-6.65H362.61l-2.29,6.65Zm4.8-8.22h11.52l-5.84-16.28Z"/><path class="cls-1" d="M385.26,111.81v-27h8a9.88,9.88,0,0,1,3.95.79,10,10,0,0,1,3.23,2.17A10.29,10.29,0,0,1,402.56,91a10.15,10.15,0,0,1,.79,4,10.11,10.11,0,0,1-3.63,7.79,9.22,9.22,0,0,1-2.5,1.51l5.76,7.5h-2.13l-5.4-7a10.34,10.34,0,0,1-2.22.24h-6.12v6.73Zm1.85-8.58h6.12a8.11,8.11,0,0,0,3.21-.65,8.33,8.33,0,0,0,4.41-4.4,8,8,0,0,0,.64-3.19,8.29,8.29,0,0,0-2.41-5.9,8.53,8.53,0,0,0-2.64-1.78,8.11,8.11,0,0,0-3.21-.64h-6.12Z"/></svg>